<svg width="364" height="73" viewBox="0 0 364 73" fill="none" xmlns="http://www.w3.org/2000/svg">
<path d="M348.33 72.3084H338.723C327.361 72.3084 313.725 61.049 313.725 47.3104C313.725 33.4686 324.881 22.3125 338.723 22.3125C352.565 22.3125 363.721 33.4686 363.721 47.3104C363.721 49.2731 363.515 51.2357 362.998 53.0951H337.277C333.972 53.0951 331.389 50.5127 331.389 47.3104C331.389 44.0049 333.972 41.4225 337.277 41.4225H350.602C348.433 36.9807 343.888 33.9851 338.723 33.9851C331.389 33.9851 325.501 39.9763 325.501 47.3104C325.501 54.5413 331.389 60.5325 338.723 60.5325H348.33C351.532 60.5325 354.115 63.1149 354.115 66.4205C354.115 69.6227 351.532 72.3084 348.33 72.3084Z" fill="#222222"/>
<path d="M309.809 72.3078C295.967 72.3078 284.811 58.6726 284.811 47.3099V33.9845H278.923V22.3119H284.811V10.9492C284.811 7.64371 287.497 5.06128 290.699 5.06128C293.901 5.06128 296.587 7.64371 296.587 10.9492V22.3119H309.809V33.9845H296.587V47.3099C296.587 54.5407 302.475 60.5319 309.809 60.5319V72.3078Z" fill="#222222"/>
<path d="M270.777 72.3084C267.574 72.3084 264.889 69.6227 264.889 66.4205V47.3104C264.889 39.9763 259.001 33.9851 251.667 33.9851C244.333 33.9851 238.445 39.9763 238.445 47.3104C238.445 54.5413 244.333 60.5325 251.667 60.5325C254.352 60.5325 256.935 59.7061 259.001 58.26V71.1721C256.728 71.8952 254.249 72.3084 251.667 72.3084C237.825 72.3084 226.669 61.049 226.669 47.3104C226.669 33.4686 237.825 22.3125 251.667 22.3125C265.508 22.3125 276.665 35.8444 276.665 47.3104V66.4205C276.665 69.6227 273.979 72.3084 270.777 72.3084Z" fill="#222222"/>
<path d="M213.972 72.3084C210.667 72.3084 208.084 69.6227 208.084 66.4205V38.6335C208.084 36.051 206.019 33.9851 203.436 33.9851C200.854 33.9851 198.788 36.051 198.788 38.6335V66.4205C198.788 69.6227 196.205 72.3084 192.9 72.3084H187.012V38.6335C187.012 36.051 184.946 33.9851 182.467 33.9851C179.884 33.9851 177.818 36.051 177.818 38.6335V72.3084H166.042V38.6335C166.042 29.6466 173.377 22.3125 182.467 22.3125C186.392 22.3125 190.111 23.6554 192.9 26.0312C195.792 23.6554 199.408 22.3125 203.436 22.3125C212.526 22.3125 219.86 29.6466 219.86 38.6335V66.4205C219.86 69.6227 217.175 72.3084 213.972 72.3084Z" fill="#222222"/>
<path d="M153.357 72.3084C150.155 72.3084 147.469 69.6227 147.469 66.4205V47.3104C147.469 39.9763 141.581 33.9851 134.247 33.9851C126.913 33.9851 121.025 39.9763 121.025 47.3104C121.025 54.5413 126.913 60.5325 134.247 60.5325C136.933 60.5325 139.515 59.7061 141.581 58.26V71.1721C139.309 71.8952 136.829 72.3084 134.247 72.3084C120.405 72.3084 109.249 61.049 109.249 47.3104C109.249 33.4686 120.405 22.3125 134.247 22.3125C148.089 22.3125 159.245 35.8444 159.245 47.3104V66.4205C159.245 69.6227 156.559 72.3084 153.357 72.3084Z" fill="#222222"/>
<path d="M77.4533 60.5325C84.7874 60.5325 90.6753 54.5413 90.6753 47.3104C90.6753 39.9763 84.7874 33.9851 77.4533 33.9851C70.1192 33.9851 64.2312 39.9763 64.2312 47.3104C64.2312 54.5413 70.1192 60.5325 77.4533 60.5325ZM77.4533 72.3084C63.6114 72.3084 52.4553 61.049 52.4553 47.3104C52.4553 33.4686 63.6114 22.3125 77.4533 22.3125C91.2951 22.3125 102.451 33.4686 102.451 47.3104C102.451 61.049 91.2951 72.3084 77.4533 72.3084Z" fill="#222222"/>
<path d="M50.8223 72.3081H36.8771L25.721 42.042H11.8792V72.3081H0V0H31.609C42.4552 0 51.3388 8.88356 51.3388 19.7298V22.3122C51.3388 30.7826 46.5871 36.9804 39.1497 40.5958L50.8223 72.3081ZM31.609 30.1628C35.9475 30.1628 39.4596 26.6507 39.4596 22.3122V19.7298C39.4596 15.3913 35.9475 11.8792 31.609 11.8792H11.8792V30.1628H31.609Z" fill="#222222"/>
</svg>
