<svg width="330" height="330" viewBox="0 0 330 330" fill="none" xmlns="http://www.w3.org/2000/svg">
<rect width="330" height="330" rx="165" fill="#222222"/>
<path d="M192.559 90.3785C183.634 91.9429 175.171 97.0979 169.913 104.151C167.143 107.869 165.579 110.819 164.271 114.768C162.86 118.923 162.552 121.103 162.578 126.514C162.578 130.849 162.655 131.695 163.271 134.26C165.886 145.441 173.196 154.52 183.454 159.316C190.866 162.753 199.176 163.573 207.203 161.65C217.513 159.188 226.31 152.212 231.105 142.646C236.799 131.31 236.158 117.641 229.387 106.869C223.873 98.1237 214.897 92.1225 204.638 90.3529C201.792 89.8656 195.38 89.8912 192.559 90.3785Z" fill="white"/>
<path d="M96 165.241V240H126.006H156.013V165.241V90.4812H126.006H96V165.241Z" fill="white"/>
</svg>
