<svg width="219" height="214" viewBox="0 0 219 214" fill="none" xmlns="http://www.w3.org/2000/svg">
<path d="M50.6533 178.545L12.1533 192.045L64.1533 213.545L102.653 199.545L82.6533 143.045L113.653 132.545L172.153 175.545L218.153 159.545L152.153 111.045C152.153 111.045 192.153 78.045 166.153 32.5452C140.153 -12.9546 98.6533 2.54521 98.6533 2.54521C98.6533 2.54521 125.153 32.5452 112.153 72.045C107.912 84.9307 94.6364 98.6867 82.6533 105.045C58.1533 118.045 32.1533 124.545 32.1533 124.545L50.6533 178.545Z" fill="#222222"/>
<path d="M48.6533 20.545C64.6696 20.545 77.6533 33.3049 77.6533 49.045C77.6533 60.5706 70.691 70.4963 60.6748 74.9865L60.7188 75.1066L19.3271 90.0314L0 36.4318L35.5625 23.6085C39.4952 21.6499 43.9428 20.545 48.6533 20.545Z" fill="#222222"/>
</svg>
