<svg width="48" height="48" viewBox="0 0 48 48" fill="none" xmlns="http://www.w3.org/2000/svg">
<g clip-path="url(#clip0_44_121)">
<path d="M40 6H38V4C38 2.9 37.1 2 36 2C34.9 2 34 2.9 34 4V6H14V4C14 2.9 13.1 2 12 2C10.9 2 10 2.9 10 4V6H8C5.8 6 4 7.8 4 10V42C4 44.2 5.8 46 8 46H40C42.2 46 44 44.2 44 42V10C44 7.8 42.2 6 40 6ZM38 42H10C8.9 42 8 41.1 8 40V16H40V40C40 41.1 39.1 42 38 42Z" fill="#666666"/>
</g>
<defs>
<clipPath id="clip0_44_121">
<rect width="48" height="48" fill="white"/>
</clipPath>
</defs>
</svg>
